<svg xmlns="http://www.w3.org/2000/svg" data-name="Layer 1" viewBox="0 0 512 640" x="0px" y="0px"><title>Watchtower</title><path d="M385.542,485H353.151L334.107,175h1.778A7.856,7.856,0,0,0,344,167.292V71.152a8.129,8.129,0,0,0-.116-.929c-.01-.084-.054-.165-.066-.248-.034-.228-.091-.454-.143-.675-.02-.085-.05-.169-.072-.253-.063-.229-.138-.452-.22-.671-.024-.067-.048-.134-.075-.2a7.955,7.955,0,0,0-.862-1.594c-.048-.07-.1-.136-.153-.2q-.192-.26-.406-.5c-.066-.076-.134-.151-.2-.224-.156-.164-.319-.319-.488-.47-.056-.05-.109-.1-.168-.152a7.8,7.8,0,0,0-.73-.547c-.011-.007-.02-.015-.029-.022L260.384,12.132a8,8,0,0,0-8.768,0L171.731,64.46c-.009.007-.018.015-.029.022a7.8,7.8,0,0,0-.73.547c-.059.049-.112.1-.168.152-.169.151-.332.306-.488.47-.069.073-.136.148-.2.224q-.213.243-.406.5c-.051.068-.1.134-.152.2a8.006,8.006,0,0,0-.862,1.594c-.026.066-.048.133-.073.2-.081.219-.153.442-.216.671-.022.084-.045.168-.064.253-.053.221-.095.447-.129.675-.012.083-.085.164-.095.248a8.129,8.129,0,0,0-.116.929v96.14A7.856,7.856,0,0,0,176.115,175h1.778L158.849,485H126.458a8,8,0,1,0,0,16H385.542a8,8,0,0,0,0-16ZM185.991,304.362,245.8,379.95l-69.881,88.319ZM256,392.667,329.057,485H182.943Zm80.082,75.6L266.2,379.95l59.808-75.588ZM328,79v33H184V79Zm0,80h-4V128h4ZM188,128v31h-4V128Zm16,0h14v31H204Zm30,0h14v31H234Zm30,0h14v31H264Zm30,0h14v31H294ZM256,28.236,309.072,63H202.928ZM318.077,175l6.461,105.289L256,366.985l-68.538-86.732L193.923,175Z"/><path d="M427.338,99H379.5a8,8,0,0,0,0,16h47.838a8,8,0,0,0,0-16Z"/><path d="M367.133,65.785a7.975,7.975,0,0,0,3.163-.656L418.133,44.51A8,8,0,0,0,411.8,29.816l-47.837,20.62a8,8,0,0,0,3.171,15.349Z"/><path d="M418.133,170.03,370.3,149.41a8,8,0,1,0-6.334,14.694L411.8,184.723a8,8,0,0,0,6.334-14.693Z"/><path d="M140.5,107a8,8,0,0,0-8-8H84.662a8,8,0,0,0,0,16H132.5A8,8,0,0,0,140.5,107Z"/><path d="M93.867,44.51,141.7,65.129a8,8,0,1,0,6.334-14.693L100.2,29.816A8,8,0,0,0,93.867,44.51Z"/><path d="M152.218,153.59a8,8,0,0,0-10.514-4.18L93.867,170.03a8,8,0,1,0,6.334,14.693L148.038,164.1A8,8,0,0,0,152.218,153.59Z"/><text x="0" y="527" fill="#000000" font-size="5px" font-weight="bold" font-family="'Helvetica Neue', Helvetica, Arial-Unicode, Arial, Sans-serif">Created by Kiran Shastry</text><text x="0" y="532" fill="#000000" font-size="5px" font-weight="bold" font-family="'Helvetica Neue', Helvetica, Arial-Unicode, Arial, Sans-serif">from the Noun Project</text></svg>