<svg fill="#3f3d54" xmlns="http://www.w3.org/2000/svg" viewBox="0 0 512 640" x="0px" y="0px"><g><path d="M494.51,243.35l-80-112A8,8,0,0,0,408,128H256V72a8,8,0,0,0-8-8V56a24.044,24.044,0,0,0-17.031-22.969A24.044,24.044,0,0,0,208,16h-8a8,8,0,0,0,0,16h8a8.009,8.009,0,0,1,8,8,8,8,0,0,0,8,8,8.009,8.009,0,0,1,8,8v8H192a16.019,16.019,0,0,1-16-16,8,8,0,0,0-8-8,16.019,16.019,0,0,1-16-16,8,8,0,0,0-16,0,32.059,32.059,0,0,0,24.813,31.187A31.828,31.828,0,0,0,164.3,64H152a8,8,0,0,0-8,8v56H112a8,8,0,0,0-6.291,3.058l-64,81.454a8,8,0,0,0-.924,1.494A48.032,48.032,0,0,0,16,256V368a47.886,47.886,0,0,0,16,35.738V488a8,8,0,0,0,8,8H488a8,8,0,0,0,8-8V248l-.018-.018A7.976,7.976,0,0,0,494.51,243.35ZM456,430.131a23.943,23.943,0,0,0-32,0,23.943,23.943,0,0,0-32,0A23.984,23.984,0,0,0,352,448v8h-8V440a8,8,0,0,0-8-8V344a48,48,0,0,0-96,0v88h-6.131A23.953,23.953,0,0,0,208,425.376V256H480V425.376a23.943,23.943,0,0,0-24,4.755ZM280,480H240V448h16v16a8,8,0,0,0,8,8h16Zm40-48H256V344a32,32,0,0,1,64,0Zm-48,24v-8h56v8ZM168,430.131a23.943,23.943,0,0,0-32,0,23.943,23.943,0,0,0-32,0,23.943,23.943,0,0,0-32,0v-14.81A48.071,48.071,0,0,0,112,368v-8h56a8,8,0,0,0,8-8V288a8,8,0,0,0-8-8H112V256h80V425.376a23.943,23.943,0,0,0-24,4.755ZM183.54,240H109.248a48.079,48.079,0,0,0-43.677-31.96L112,148.949ZM160,296v16H144V296Zm-48,48V328h16v16Zm32-16h16v16H144Zm-16-16H112V296h16Zm344.454-72H203.889L128.46,144H403.883ZM192,128V80h48v48ZM160,80h16v48H160ZM32,256a32,32,0,0,1,64,0V368a32.057,32.057,0,0,1-24,30.987V314.422l14.656-21.984a8,8,0,1,0-13.312-8.876L72,285.578V248a8,8,0,0,0-16,0v77.578l-1.344-2.016a8,8,0,1,0-13.312,8.876L56,354.422v44.565A32.057,32.057,0,0,1,32,368ZM56,415.321V424a23.889,23.889,0,0,0-8,1.376V413.248A47.754,47.754,0,0,0,56,415.321ZM48,448a8,8,0,0,1,16,0v32H48Zm32,0a8,8,0,0,1,16,0v32H80Zm32,0a8,8,0,0,1,16,0v32H112Zm32,0a8,8,0,0,1,16,0v32H144Zm32,0a8,8,0,0,1,16,0v32H176Zm32,32V448a8,8,0,0,1,16,0v32Zm88-8h56v8H296Zm72-24a8,8,0,0,1,16,0v32H368Zm32,0a8,8,0,0,1,16,0v32H400Zm32,0a8,8,0,0,1,16,0v32H432Zm48,32H464V448a8,8,0,0,1,16,0Z"/><path fill="#AC83C1" d="M440,288H376a8,8,0,0,0-8,8v64a8,8,0,0,0,8,8h64a8,8,0,0,0,8-8V296A8,8,0,0,0,440,288Zm-8,32H416V304h16Zm-32-16v16H384V304Zm-16,32h16v16H384Zm32,16V336h16v16Z"/><path fill="#AC83C1" d="M416,112h48a32,32,0,0,0,8.9-62.746,39.988,39.988,0,0,0-65.794,0A32,32,0,0,0,416,112Zm-2.6-47.786a8,8,0,0,0,5.682-3.968,24,24,0,0,1,41.844,0,8,8,0,0,0,5.682,3.968A16,16,0,0,1,464,96H416a16,16,0,0,1-2.6-31.786Z"/><path fill="#AC83C1" d="M48,96H96a32,32,0,0,0,8.9-62.746,39.988,39.988,0,0,0-65.794,0A32,32,0,0,0,48,96ZM45.4,48.214a8,8,0,0,0,5.682-3.968,24,24,0,0,1,41.844,0A8,8,0,0,0,98.6,48.214,16,16,0,0,1,96,80H48a16,16,0,0,1-2.6-31.786Z"/><rect fill="#AC83C1" x="272" y="368" width="16" height="16"/><path fill="#AC83C1" d="M353.822,221.083l.011.013.021.025h0A7.984,7.984,0,0,0,360,224h48a8,8,0,0,0,8-8V192a32.036,32.036,0,0,0-32-32H320a8,8,0,0,0-6.146,13.121ZM400,192v16H368V192a16,16,0,0,1,32,0Zm-43.695-16A31.8,31.8,0,0,0,352,192v1.9L337.08,176Z"/><path fill="#AC83C1" d="M184.755,164.606a8,8,0,0,0,1.1,8.515l39.968,47.962.011.013.021.025h0A7.984,7.984,0,0,0,232,224h48a8,8,0,0,0,8-8V192a32.036,32.036,0,0,0-32-32H192A8,8,0,0,0,184.755,164.606ZM272,192v16H240V192a16,16,0,0,1,32,0Zm-43.695-16A31.8,31.8,0,0,0,224,192v1.9L209.08,176Z"/><path fill="#AC83C1" d="M280,64a17.791,17.791,0,0,1,16,9.889l.845,1.689a8,8,0,0,0,14.31,0l.845-1.69A17.792,17.792,0,0,1,328,64a8,8,0,0,0,0-16,33.7,33.7,0,0,0-24,9.931A33.7,33.7,0,0,0,280,48a8,8,0,0,0,0,16Z"/><path fill="#AC83C1" d="M328,32a17.791,17.791,0,0,1,16,9.889l.845,1.689a8,8,0,0,0,14.31,0l.845-1.69A17.792,17.792,0,0,1,376,32a8,8,0,0,0,0-16,33.7,33.7,0,0,0-24,9.931A33.7,33.7,0,0,0,328,16a8,8,0,0,0,0,16Z"/><path fill="#AC83C1" d="M272,272H256a8,8,0,0,0,0,16h16a8,8,0,0,0,0-16Z"/><path fill="#AC83C1" d="M320,272H296a8,8,0,0,0,0,16h24a8,8,0,0,0,0-16Z"/></g></svg>