<svg fill="#3f3d54" xmlns="http://www.w3.org/2000/svg" viewBox="0 0 512 640" x="0px" y="0px"><g><path d="M488,80H88V32a8,8,0,0,0-8-8H64A48.055,48.055,0,0,0,16,72V362a38.043,38.043,0,0,0,38,38H296.493l-77.669,65.9A8,8,0,0,0,224,480H488a8,8,0,0,0,8-8V88A8,8,0,0,0,488,80ZM32,72A32.036,32.036,0,0,1,64,40h8V322.971H52a35.791,35.791,0,0,0-20,6.08ZM54,384a22.025,22.025,0,0,1-22-22v-3.029a20.022,20.022,0,0,1,20-20H80a8,8,0,0,0,8-8V96H480V244.3L447.35,272H288a8,8,0,0,0-8,8v64a8,8,0,0,0,8,8h65.064L315.35,384Zm317.921-48H336V320h16V304H312v16h8v16H296V288h72v24h16V288h44.493ZM464,464V448H448v16H432V448H416v16H400V448H384v16H368V448H352v16H336V448H320v16H304V448H288v16H245.794L480,265.279V288H464v16h16v16H464v16h16v16H464v16h16v16H464v16h16v16H464v16h16v32Z"/><path fill = "#AC83C1" d="M244.24,153.216l-64-40a8,8,0,0,0-8.48,0l-64,40A8,8,0,0,0,104,160v88a8,8,0,0,0,8,8H240a8,8,0,0,0,8-8V160A8,8,0,0,0,244.24,153.216ZM160,240V192h32v48Zm72,0H208V184a8,8,0,0,0-8-8H152a8,8,0,0,0-8,8v56H120V164.434l56-35,56,35Z"/><path fill = "#AC83C1" d="M187.314,416.08,56.005,416H56a8,8,0,0,0-3.576.844l-32,15.99a8,8,0,0,0,0,14.311l32,16.009A7.989,7.989,0,0,0,56,464l131.29.08h.016a24,24,0,0,0,.013-48ZM64,432.005l96,.058v16l-96-.058ZM48,436.94v6.112l-6.111-3.058Zm144.953,8.8a7.945,7.945,0,0,1-5.652,2.34H187.3L176,448.073v-16l11.305.006a8,8,0,0,1,5.648,13.66Z"/><path d="M443.534,336.823a8,8,0,0,0-8.412.836l-104,80A8,8,0,0,0,336,432H440a8,8,0,0,0,8-8V344A8,8,0,0,0,443.534,336.823ZM432,384H401.121L432,360.247Zm-72.479,32,20.8-16H432v16Z"/><path fill = "#AC83C1"  d="M288,256H456a8,8,0,0,0,8-8V128a8,8,0,0,0-8-8H288a8,8,0,0,0-8,8V248A8,8,0,0,0,288,256Zm160-16H408V224h40ZM328,136v16h16V136h48v32h16V136h40v72H408V184H392v56H296V208h32v16h16V208h32V192H344V168H328v24H296V136Z"/><path fill = "#AC83C1" d="M241.315,288.108l-96-16a8.007,8.007,0,0,0-4.893.737l-32,16A8,8,0,0,0,104,296v48a8,8,0,0,0,8,8H240a8,8,0,0,0,8-8V296A8,8,0,0,0,241.315,288.108ZM152,336V320h16v16Zm80,0H184V312a8,8,0,0,0-8-8H144a8,8,0,0,0-8,8v24H120V300.944l25.251-12.626L232,302.777Z"/></g></svg>