<svg fill="#3f3d54" xmlns="http://www.w3.org/2000/svg" viewBox="0 0 512 640" x="0px" y="0px"><g><path d="M488,64H330.422L260.438,17.344a8,8,0,0,0-8.876,0L181.578,64H24a8,8,0,0,0-8,8v32a8,8,0,0,0,8,8h8V400H24a8,8,0,0,0-8,8v32a8,8,0,0,0,8,8h96v40a8,8,0,0,0,8,8h32a8,8,0,0,0,8-8V448H488a8,8,0,0,0,8-8V408a8,8,0,0,0-8-8h-8V112h8a8,8,0,0,0,8-8V72A8,8,0,0,0,488,64ZM256,33.615,301.578,64H210.422ZM120,432H32V416h88Zm32,48H136V328h16Zm0-168H136V280h16Zm13.847-45.447A7.968,7.968,0,0,0,160,264H128a7.968,7.968,0,0,0-5.847,2.553A22.262,22.262,0,0,1,122,264a22,22,0,0,1,44,0A22.262,22.262,0,0,1,165.847,266.553ZM144,226a37.989,37.989,0,0,0-24,67.446V400H48V112H464V400H168V293.446A37.628,37.628,0,0,0,181.145,272H248a8,8,0,0,0,8-8V184h28.686l-10.343,10.343a8,8,0,0,0,11.314,11.314l24-24a8,8,0,0,0,0-11.314l-24-24a8,8,0,0,0-11.314,11.314L284.686,168H248a8,8,0,0,0-8,8v80H181.145A38.059,38.059,0,0,0,144,226ZM480,432H168V416H480Zm0-336H32V80H480Z"/><path fill = "#AC83C1" d="M338,300a38.062,38.062,0,0,0-36.655,28H288v16h12.478A38,38,0,1,0,338,300Zm0,60a22,22,0,1,1,22-22A22.025,22.025,0,0,1,338,360Z"/><path fill = "#AC83C1" d="M362,204a38,38,0,1,0-38-38A38.043,38.043,0,0,0,362,204Zm0-60a22,22,0,1,1-22,22A22.025,22.025,0,0,1,362,144Z"/><path fill = "#AC83C1" d="M221.657,317.657a8,8,0,1,0-11.314-11.314l-24,24a8,8,0,0,0,0,11.314l24,24a8,8,0,1,0,11.314-11.314L211.314,344H240V328H211.314Z"/><rect fill = "#AC83C1" x="256" y="328" width="16" height="16"/><path d="M389.657,226.343a8,8,0,0,0-11.314,0L364,240.686l-14.343-14.343a8,8,0,0,0-11.314,11.314L352.686,252l-14.343,14.343a8,8,0,0,0,11.314,11.314L364,263.314l14.343,14.343a8,8,0,0,0,11.314-11.314L375.314,252l14.343-14.343A8,8,0,0,0,389.657,226.343Z"/><path fill = "#AC83C1" d="M176,192V144a8,8,0,0,0-8-8H120a8,8,0,0,0-8,8v48a8,8,0,0,0,8,8h48A8,8,0,0,0,176,192Zm-16-8H128V152h32Z"/></g></svg>